<svg width="24" height="24" viewBox="0 0 24 24" fill="none" xmlns="http://www.w3.org/2000/svg">
<path d="M3.50001 11.7513C3.49979 10.303 3.88082 8.88015 4.60482 7.62581C5.32882 6.37148 6.37026 5.32983 7.62446 4.60559C8.87865 3.88135 10.3014 3.50003 11.7497 3.49998C13.198 3.49992 14.6208 3.88112 15.875 4.60527C16.0472 4.70315 16.2511 4.72897 16.4422 4.67708C16.6333 4.62519 16.7962 4.4998 16.8952 4.32829C16.9942 4.15677 17.0214 3.95305 16.9708 3.76158C16.9202 3.57011 16.7959 3.40643 16.625 3.30627C14.7663 2.23314 12.6054 1.8033 10.4775 2.08341C8.34964 2.36351 6.37362 3.33792 4.85594 4.8555C3.33826 6.37308 2.36373 8.34904 2.08349 10.4769C1.80324 12.6048 2.23294 14.7657 3.30595 16.6245C4.37896 18.4833 6.03531 19.936 8.01813 20.7575C10.0009 21.579 12.1994 21.7233 14.2726 21.168C16.3458 20.6127 18.1778 19.3889 19.4845 17.6863C20.7913 15.9837 21.4997 13.8975 21.5 11.7513C21.5 11.5524 21.421 11.3616 21.2803 11.2209C21.1397 11.0803 20.9489 11.0013 20.75 11.0013C20.5511 11.0013 20.3603 11.0803 20.2197 11.2209C20.079 11.3616 20 11.5524 20 11.7513C20 13.9393 19.1308 16.0377 17.5836 17.5849C16.0365 19.1321 13.9381 20.0013 11.75 20.0013C9.56198 20.0013 7.46356 19.1321 5.91638 17.5849C4.36921 16.0377 3.50001 13.9393 3.50001 11.7513Z" fill="#F7AB01"/>
<path d="M23.2819 5.28195C23.3517 5.21222 23.407 5.12943 23.4447 5.03832C23.4825 4.94721 23.5019 4.84956 23.5019 4.75095C23.5019 4.65233 23.4825 4.55468 23.4447 4.46357C23.407 4.37246 23.3517 4.28968 23.2819 4.21995C23.2122 4.15022 23.1294 4.0949 23.0383 4.05716C22.9472 4.01942 22.8496 4 22.7509 4C22.6523 4 22.5547 4.01942 22.4636 4.05716C22.3725 4.0949 22.2897 4.15022 22.2199 4.21995L12.2509 14.1904L8.28195 10.2199C8.21222 10.1502 8.12943 10.0949 8.03832 10.0572C7.94721 10.0194 7.84956 10 7.75095 10C7.65233 10 7.55468 10.0194 7.46357 10.0572C7.37246 10.0949 7.28968 10.1502 7.21995 10.2199C7.15022 10.2897 7.0949 10.3725 7.05716 10.4636C7.01942 10.5547 7 10.6523 7 10.7509C7 10.8496 7.01942 10.9472 7.05716 11.0383C7.0949 11.1294 7.15022 11.2122 7.21995 11.2819L11.7199 15.7819C11.7896 15.8518 11.8724 15.9072 11.9635 15.945C12.0546 15.9828 12.1523 16.0023 12.2509 16.0023C12.3496 16.0023 12.4473 15.9828 12.5384 15.945C12.6295 15.9072 12.7123 15.8518 12.7819 15.7819L23.2819 5.28195V5.28195Z" fill="#F7AB01"/>
</svg>
